<?xml version="1.0" encoding="UTF-8"?>
<svg id="Layer_2" data-name="Layer 2" xmlns="http://www.w3.org/2000/svg" xmlns:xlink="http://www.w3.org/1999/xlink" viewBox="0 0 244.94 59.18">
  <defs>
    <style>
      .cls-1 {
        fill: url(#linear-gradient);
      }
    </style>
    <linearGradient id="linear-gradient" x1="0" y1="29.58" x2="65.21" y2="29.58" gradientUnits="userSpaceOnUse">
      <stop offset="0" stop-color="#00ddf4"/>
      <stop offset=".06" stop-color="#05d3f1"/>
      <stop offset=".15" stop-color="#14baea"/>
      <stop offset=".26" stop-color="#2c90df"/>
      <stop offset=".4" stop-color="#4e57cf"/>
      <stop offset=".5" stop-color="#6a29c3"/>
      <stop offset="1" stop-color="#000"/>
    </linearGradient>
  </defs>
  <g id="Layer_1-2" data-name="Layer 1">
    <g>
      <path class="cls-1" d="M52.09,59.16c-.17,0-.33,0-.5-.03-2.49-.27-4.44-2.41-6.26-5.67-2.3,3.94-4.58,5.74-7.07,5.62-3.87-.18-5.96-4.96-7.2-8.54-1.54-4.46-3.7-11.54-5.79-18.39-1.9-6.23-3.7-12.11-4.58-14.53l-.11-.3c-.19-.52-.42-1.14-.67-1.81-2.16,5.6-3.92,11.53-5.63,17.3l-.56,1.88c-.34,1.17-.69,2.36-1.03,3.54-.97,3.34-1.97,6.79-3.03,10.15-.69,2.17-1.38,4.27-2.23,6.34-.71,1.7-1.89,4.52-4.22,4.31-1.37-.13-2.28-1.19-2.7-3.15v-.04C0,53.36,0,50.84,0,48.4v-.38c.04-3.55.25-7.4.63-11.8C1.48,26.82,3.58,10.02,8.2,3.11,10.14.25,12.22-.14,13.63.04c2.4.3,4.45,2.43,6.27,5.53C22.19,1.68,24.49-.09,26.98.03c2.94.15,5.29,2.93,7.17,8.49h0c1.16,3.41,2.61,8.32,4.15,13.52,2.28,7.69,4.64,15.64,6.18,19.29.27.63.55,1.34.86,2.1,2.14-5.57,3.89-11.46,5.59-17.19l.56-1.89c.34-1.17.69-2.35,1.03-3.54.97-3.34,1.97-6.79,3.03-10.16.69-2.17,1.38-4.28,2.23-6.34.71-1.7,1.91-4.52,4.22-4.31,1.37.13,2.28,1.18,2.7,3.15v.04c.5,2.49.49,5.01.49,7.45v.38c-.04,3.55-.25,7.4-.63,11.8-.85,9.41-2.95,26.21-7.57,33.12-1.46,2.15-3.11,3.22-4.92,3.22ZM47.63,48.82c.44.94.89,1.86,1.36,2.69,1.86,3.29,2.92,3.49,3.04,3.5.28.03.86-.39,1.54-1.39,2.94-4.41,5.52-16.06,6.87-31.17.37-4.28.57-8.03.61-11.45v-.36c0-1.05,0-2.12-.04-3.18-.53,1.44-1.02,2.93-1.5,4.44-1.04,3.32-2.04,6.75-3,10.06-.34,1.19-.69,2.37-1.04,3.55l-.56,1.89c-2.12,7.16-4.31,14.54-7.29,21.4ZM22.18,10.12c.8,1.82,1.55,3.78,2.28,5.77l.11.3c.93,2.52,2.74,8.46,4.66,14.75,1.98,6.5,4.23,13.86,5.75,18.25,1.56,4.5,2.95,5.73,3.48,5.75.07,0,1.72,0,4.63-6.13-.49-1.14-.99-2.35-1.5-3.6-.33-.82-.64-1.58-.92-2.25-1.64-3.86-4.03-11.93-6.34-19.73-1.53-5.16-2.97-10.03-4.1-13.37-1.5-4.43-2.91-5.65-3.45-5.68-.08,0-1.74-.01-4.59,5.94ZM13.07,4.15c-.35,0-.9.48-1.44,1.28-2.94,4.41-5.52,16.06-6.87,31.17-.37,4.28-.57,8.03-.61,11.45v.36c0,1.05,0,2.12.04,3.18.53-1.44,1.02-2.93,1.5-4.44,1.04-3.32,2.04-6.75,3-10.06.35-1.19.69-2.37,1.04-3.56l.56-1.89c2.13-7.2,4.34-14.63,7.34-21.52-.19-.4-.39-.79-.59-1.18-2.34-4.46-3.76-4.76-3.92-4.78-.01,0-.03,0-.04,0Z"/>
      <g>
        <path d="M82.6,11.66c0-.72-.01-1.55-.03-2.49-.02-.94-.05-1.95-.08-3.02-.01-.35-.02-.69-.04-1.04.21.38.45.8.73,1.27.5.86,1.04,1.76,1.62,2.72.58.95,1.13,1.83,1.65,2.64l9.82,15.17h4.27V.56h-3.56v17.13c0,.65.01,1.39.04,2.22.02.67.05,1.46.09,2.4-.51-.87-.96-1.66-1.38-2.36-.47-.8-.95-1.56-1.41-2.29L83.31.56h-4.31v26.35h3.6v-15.25Z"/>
        <path d="M108.66,26.91l4.8-6.81c.56-.8,1.07-1.52,1.53-2.18.46-.66.86-1.24,1.21-1.75l.4.61-.05-.06c1.01,1.49,1.79,2.63,2.34,3.42l4.72,6.77h4.23l-9.49-13.63L127.31.56h-4.08l-4.01,5.7c-.52.74-1.04,1.5-1.57,2.29-.53.79-1,1.48-1.4,2.1l-.47-.7.04.06c-1.1-1.63-1.92-2.85-2.47-3.64l-4.01-5.81h-4.23l9.01,12.87-9.53,13.48h4.08Z"/>
        <polygon points="99.24 35.5 108.16 35.5 108.16 58.59 111.91 58.59 111.91 35.5 120.86 35.5 120.86 32.24 99.24 32.24 99.24 35.5"/>
        <path d="M141,33.37c-1.95-1.15-4.22-1.73-6.79-1.73s-4.84.58-6.79,1.73c-1.95,1.15-3.46,2.76-4.53,4.84-1.07,2.08-1.6,4.48-1.6,7.2s.53,5.12,1.6,7.2c1.07,2.08,2.58,3.69,4.53,4.84,1.95,1.15,4.22,1.73,6.79,1.73s4.84-.58,6.79-1.73c1.95-1.15,3.46-2.76,4.53-4.84,1.07-2.08,1.6-4.48,1.6-7.2s-.53-5.12-1.6-7.2c-1.07-2.08-2.58-3.69-4.53-4.84ZM142.18,50.99c-.75,1.59-1.81,2.8-3.18,3.65-1.37.85-2.97,1.28-4.8,1.28s-3.42-.43-4.8-1.28-2.44-2.07-3.18-3.65c-.75-1.59-1.12-3.44-1.12-5.58s.37-3.99,1.12-5.58c.75-1.59,1.81-2.8,3.18-3.65,1.37-.85,2.97-1.28,4.8-1.28s3.42.43,4.8,1.28c1.37.85,2.44,2.07,3.18,3.65.75,1.59,1.12,3.44,1.12,5.58s-.37,3.99-1.12,5.58Z"/>
        <path d="M167.96,49.3c-.38.98-.78,2.04-1.2,3.18-.22.59-.41,1.12-.58,1.61-.05-.15-.1-.3-.16-.44-.24-.68-.5-1.39-.77-2.11-.27-.72-.55-1.46-.85-2.2l-6.82-17.1h-4.98v26.35h3.56v-15.17c0-.84-.01-1.71-.03-2.59-.02-.88-.05-1.79-.1-2.72-.02-.44-.05-.88-.07-1.34v-.03c.14.42.29.83.43,1.24.2.54.41,1.1.62,1.66.21.56.44,1.16.69,1.79.25.63.51,1.29.79,1.99l6.11,15.17h3.11l6.07-15.21c.41-1.04.8-2.03,1.17-2.97.37-.94.65-1.69.85-2.24.2-.55.35-.98.46-1.3-.03.85-.05,1.34-.06,1.46,0,0,0-.02,0-.03-.04,2.08-.07,3.77-.07,5.07v15.21h3.52v-26.35h-4.98l-6.71,17.06Z"/>
        <path d="M176.18,38.37s0-.01,0-.03c0,.01,0,.02,0,.03h0Z"/>
        <rect x="186.24" y="32.24" width="3.67" height="26.35"/>
        <path d="M214.4,52.81c-.79,1.05-1.76,1.83-2.9,2.35-1.14.51-2.36.77-3.64.77-1.74,0-3.25-.42-4.56-1.25-1.3-.84-2.31-2.04-3.03-3.62-.72-1.58-1.07-3.46-1.07-5.63s.36-4.06,1.07-5.63c.71-1.58,1.72-2.79,3.03-3.62,1.3-.84,2.82-1.25,4.56-1.25,1.23,0,2.37.2,3.41.61,1.05.4,1.96,1.05,2.73,1.93.78.89,1.35,2.02,1.71,3.42h3.69c-.41-2.06-1.18-3.78-2.29-5.16-1.11-1.38-2.47-2.4-4.06-3.06-1.59-.66-3.32-.99-5.2-.99-2.42,0-4.58.56-6.46,1.67-1.89,1.11-3.36,2.71-4.42,4.79-1.06,2.08-1.59,4.51-1.59,7.31s.53,5.23,1.6,7.31c1.06,2.08,2.54,3.67,4.43,4.79,1.89,1.11,4.04,1.67,6.45,1.67,1.94,0,3.76-.39,5.46-1.16,1.7-.77,3.11-1.93,4.23-3.47,1.13-1.54,1.81-3.42,2.04-5.63h-3.69c-.21,1.54-.7,2.83-1.49,3.88Z"/>
        <path d="M244.12,47.88c-.55-.97-1.44-1.79-2.68-2.48s-2.88-1.24-4.93-1.66l-2.7-.56c-1.47-.3-2.62-.65-3.44-1.05-.82-.4-1.39-.88-1.72-1.43-.33-.56-.5-1.24-.5-2.06s.21-1.48.63-2.06c.42-.58,1.04-1.02,1.88-1.33.83-.31,1.86-.46,3.08-.46,1.63,0,2.93.2,3.91.6.98.4,1.69.97,2.14,1.72.45.75.72,1.69.81,2.83h3.62c-.04-1.59-.41-3.01-1.11-4.24-.7-1.24-1.83-2.22-3.38-2.95-1.55-.73-3.56-1.1-6.04-1.1-1.9,0-3.55.29-4.95.87-1.4.58-2.47,1.4-3.22,2.46-.75,1.06-1.12,2.3-1.12,3.71,0,1.49.33,2.75,1,3.78.67,1.03,1.58,1.85,2.74,2.47,1.16.61,2.54,1.08,4.12,1.41l2.7.56c1.54.31,2.75.67,3.65,1.06.9.39,1.55.86,1.96,1.42.41.55.61,1.23.61,2.04,0,1.01-.25,1.86-.75,2.55-.5.69-1.23,1.21-2.2,1.55-.96.35-2.13.52-3.49.52-1.47,0-2.76-.19-3.85-.58-1.1-.39-1.97-1.03-2.61-1.94-.64-.91-.97-2.12-.99-3.63h-3.73c.02,2.1.49,3.84,1.42,5.22.93,1.38,2.23,2.41,3.89,3.07s3.62,1,5.87,1,3.97-.32,5.5-.95c1.53-.64,2.69-1.54,3.49-2.72.8-1.18,1.2-2.57,1.2-4.17,0-1.33-.27-2.48-.82-3.45Z"/>
        <path d="M87.51,32.24l-10.49,26.35h3.78l1.99-5.14h13.67l2.02,5.14h3.86l-10.68-26.35h-4.16ZM84,50.32l3.62-9.35c.32-.83.63-1.65.94-2.45.31-.8.59-1.58.86-2.34.04-.13.09-.26.14-.4.05.14.1.28.16.42.28.76.58,1.55.89,2.34.31.8.62,1.61.95,2.43l3.68,9.35h-11.23Z"/>
      </g>
    </g>
  </g>
</svg>